# xmcd CD database file
#
# Track frame offsets:
#	150
#	23617
#	42105
#	62342
#	85369
#	108768
#	135175
#	155717
#	177737
#	193818
#
# Disc length: 3005 seconds
#
# Revision: 0
# Processed by: cddbd v1.5.2PL0 Copyright (c) Steve Scherf et al.
# Submitted via: CDex 1.51
#
DISCID=7a0bbb0a
DTITLE=Various Artist - Bolero Jazz: Misty
DYEAR=2001
DGENRE=Jazz
TTITLE0=Contigo Aprende
TTITLE1=Ya No Me Quieres
TTITLE2=Y Hoy Como Ayer
TTITLE3=Misty
TTITLE4=The Look of Love
TTITLE5=Total
TTITLE6=Añorado Encuentro
TTITLE7=Começar de Novo
TTITLE8=No Puedo Ser Feliz
TTITLE9=Manhã de Carnaval
EXTD=YEAR: 2001
EXTT0=
EXTT1=
EXTT2=
EXTT3=
EXTT4=
EXTT5=
EXTT6=
EXTT7=
EXTT8=
EXTT9=
PLAYORDER=
